<svg version="1.1" width="157" height="103.4" viewBox="0 0 157 103.4" xmlns="http://www.w3.org/2000/svg" xmlns:xlink="http://www.w3.org/1999/xlink" overflow="hidden"><defs></defs><g><path d=" M 126.4 61.1 C 126.4 86.3 126.4 86.3 126.4 86.3 C 126.4 86.9 126 87.3 125.4 87.3 C 108.2 87.3 108.2 87.3 108.2 87.3 C 108.2 85.3 108.2 85.3 108.2 85.3 C 124.4 85.3 124.4 85.3 124.4 85.3 C 124.4 61.1 124.4 61.1 124.4 61.1 L 126.4 61.1 L 126.4 61.1 L 126.4 61.1 Z M 106.1 60.9 C 106.1 60.6 106 60.3 105.7 60.1 C 81.2 40.9 81.2 40.9 81.2 40.9 C 80.9 40.6 80.3 40.6 80 40.9 C 55.6 60.1 55.6 60.1 55.6 60.1 C 55.3 60.3 55.2 60.6 55.2 60.9 C 55.2 93.2 55.2 93.2 55.2 93.2 C 57.2 93.2 57.2 93.2 57.2 93.2 C 57.2 61.5 57.2 61.5 57.2 61.5 C 80.7 43 80.7 43 80.7 43 C 104.1 61.4 104.1 61.4 104.1 61.4 C 104.1 93.1 104.1 93.1 104.1 93.1 C 106.1 93.1 106.1 93.1 106.1 93.1 L 106.1 60.9 L 106.1 60.9 L 106.1 60.9 Z M 111.3 98.6 C 111.3 102.3 111.3 102.3 111.3 102.3 C 111.3 102.9 110.8 103.3 110.3 103.3 C 51.1 103.3 51.1 103.3 51.1 103.3 C 50.6 103.3 50.1 102.9 50.1 102.3 C 50.1 98.6 50.1 98.6 50.1 98.6 C 50.1 98 50.6 97.6 51.1 97.6 C 54 97.6 54 97.6 54 97.6 C 54 96.3 54 96.3 54 96.3 C 54 95.7 54.5 95.3 55 95.3 C 106.5 95.3 106.5 95.3 106.5 95.3 C 107 95.3 107.5 95.7 107.5 96.3 C 107.5 97.6 107.5 97.6 107.5 97.6 C 110.4 97.6 110.4 97.6 110.4 97.6 C 110.8 97.6 111.3 98.1 111.3 98.6 L 111.3 98.6 Z M 53.2 85.3 C 37 85.3 37 85.3 37 85.3 C 37 61.1 37 61.1 37 61.1 C 35 61.1 35 61.1 35 61.1 C 35 86.3 35 86.3 35 86.3 C 35 86.9 35.4 87.3 36 87.3 C 53.2 87.3 53.2 87.3 53.2 87.3 L 53.2 85.3 L 53.2 85.3 L 53.2 85.3 Z" fill="#27ADE4" fill-rule="evenodd" clip-rule="evenodd"/><path d=" M 45.5 69.2 C 45.5 64.8 45.5 64.8 45.5 64.8 C 45.5 64.5 45.3 64.3 45 64.3 C 40.7 64.3 40.7 64.3 40.7 64.3 C 40.4 64.3 40.2 64.5 40.2 64.8 C 40.2 69.2 40.2 69.2 40.2 69.2 C 40.2 69.5 40.4 69.7 40.7 69.7 C 45 69.7 45 69.7 45 69.7 C 45.3 69.7 45.5 69.5 45.5 69.2 L 45.5 69.2 Z M 45.5 76.8 C 45.5 72.4 45.5 72.4 45.5 72.4 C 45.5 72.1 45.3 71.9 45 71.9 C 40.7 71.9 40.7 71.9 40.7 71.9 C 40.4 71.9 40.2 72.1 40.2 72.4 C 40.2 76.8 40.2 76.8 40.2 76.8 C 40.2 77.1 40.4 77.3 40.7 77.3 C 45 77.3 45 77.3 45 77.3 C 45.3 77.2 45.5 77 45.5 76.8 L 45.5 76.8 Z M 53.1 69.2 C 53.1 64.8 53.1 64.8 53.1 64.8 C 53.1 64.5 52.9 64.3 52.6 64.3 C 48.3 64.3 48.3 64.3 48.3 64.3 C 48 64.3 47.8 64.5 47.8 64.8 C 47.8 69.2 47.8 69.2 47.8 69.2 C 47.8 69.5 48 69.7 48.3 69.7 C 52.6 69.7 52.6 69.7 52.6 69.7 C 52.9 69.7 53.1 69.5 53.1 69.2 L 53.1 69.2 Z M 53.1 76.8 C 53.1 72.4 53.1 72.4 53.1 72.4 C 53.1 72.1 52.9 71.9 52.6 71.9 C 48.3 71.9 48.3 71.9 48.3 71.9 C 48 71.9 47.8 72.1 47.8 72.4 C 47.8 76.8 47.8 76.8 47.8 76.8 C 47.8 77.1 48 77.3 48.3 77.3 C 52.6 77.3 52.6 77.3 52.6 77.3 C 52.9 77.2 53.1 77 53.1 76.8 L 53.1 76.8 Z M 113.2 69.2 C 113.2 64.8 113.2 64.8 113.2 64.8 C 113.2 64.5 113 64.3 112.7 64.3 C 108.4 64.3 108.4 64.3 108.4 64.3 C 108.1 64.3 107.9 64.5 107.9 64.8 C 107.9 69.2 107.9 69.2 107.9 69.2 C 107.9 69.5 108.1 69.7 108.4 69.7 C 112.7 69.7 112.7 69.7 112.7 69.7 C 113.1 69.7 113.2 69.5 113.2 69.2 L 113.2 69.2 Z M 113.2 76.8 C 113.2 72.4 113.2 72.4 113.2 72.4 C 113.2 72.1 113 71.9 112.7 71.9 C 108.4 71.9 108.4 71.9 108.4 71.9 C 108.1 71.9 107.9 72.1 107.9 72.4 C 107.9 76.8 107.9 76.8 107.9 76.8 C 107.9 77.1 108.1 77.3 108.4 77.3 C 112.7 77.3 112.7 77.3 112.7 77.3 C 113.1 77.2 113.2 77 113.2 76.8 L 113.2 76.8 Z M 120.8 69.2 C 120.8 64.8 120.8 64.8 120.8 64.8 C 120.8 64.5 120.6 64.3 120.3 64.3 C 116 64.3 116 64.3 116 64.3 C 115.8 64.3 115.5 64.5 115.5 64.8 C 115.5 69.2 115.5 69.2 115.5 69.2 C 115.5 69.5 115.7 69.7 116 69.7 C 120.3 69.7 120.3 69.7 120.3 69.7 C 120.6 69.7 120.8 69.5 120.8 69.2 L 120.8 69.2 Z M 120.8 76.8 C 120.8 72.4 120.8 72.4 120.8 72.4 C 120.8 72.1 120.6 71.9 120.3 71.9 C 116 71.9 116 71.9 116 71.9 C 115.8 71.9 115.5 72.1 115.5 72.4 C 115.5 76.8 115.5 76.8 115.5 76.8 C 115.5 77.1 115.7 77.3 116 77.3 C 120.3 77.3 120.3 77.3 120.3 77.3 C 120.6 77.2 120.8 77 120.8 76.8 L 120.8 76.8 Z M 128.3 57.4 C 113.9 46.8 113.9 46.8 113.9 46.8 C 92.2 46.8 92.2 46.8 92.2 46.8 C 107.6 59 107.6 59 107.6 59 C 107.7 59 107.8 59.2 107.9 59.3 C 127.8 59.3 127.8 59.3 127.8 59.3 C 128.7 59.3 129.2 58 128.3 57.4 L 128.3 57.4 Z M 53.5 59 C 68.9 46.9 68.9 46.9 68.9 46.9 C 47.2 46.9 47.2 46.9 47.2 46.9 C 32.7 57.4 32.7 57.4 32.7 57.4 C 31.9 58 32.3 59.3 33.2 59.3 C 53.1 59.3 53.1 59.3 53.1 59.3 C 53.3 59.2 53.4 59 53.5 59 L 53.5 59 Z M 79.4 38.6 C 79.9 38.2 79.9 38.2 79.9 38.2 C 80.2 37.9 80.8 37.9 81.1 38.2 C 81.4 38.4 81.4 38.4 81.4 38.4 C 81.4 32.3 81.4 32.3 81.4 32.3 C 81.4 32.2 81.5 32.1 81.6 32.1 C 93.3 32.1 93.3 32.1 93.3 32.1 C 93.5 32.1 93.7 31.8 93.5 31.6 C 90.4 28.4 90.4 28.4 90.4 28.4 C 90.3 28.3 90.3 28.1 90.4 28 C 93.5 24.8 93.5 24.8 93.5 24.8 C 93.7 24.6 93.5 24.3 93.3 24.3 C 81.1 24.3 81.1 24.3 81.1 24.3 C 79.6 24.3 79.6 24.3 79.6 24.3 L 79.6 24.3 C 79.5 24.3 79.4 24.4 79.4 24.6 C 79.4 31.9 79.4 31.9 79.4 31.9 L 79.4 31.9 L 79.4 38.6 L 79.4 38.6 L 79.4 38.6 Z" fill="#27ADE4" fill-rule="evenodd" clip-rule="evenodd"/></g><g><path d=" M 71.7 91.4 C 61.4 91.4 61.4 91.4 61.4 91.4 C 61 91.4 60.7 91.1 60.7 90.7 C 60.7 82.3 60.7 82.3 60.7 82.3 C 60.7 81.9 61 81.6 61.4 81.6 C 71.7 81.6 71.7 81.6 71.7 81.6 C 72.1 81.6 72.3 81.9 72.3 82.3 C 72.3 90.7 72.3 90.7 72.3 90.7 C 72.3 91.1 72 91.4 71.7 91.4 L 71.7 91.4 Z M 61.6 90.6 C 71.5 90.6 71.5 90.6 71.5 90.6 C 71.5 82.6 71.5 82.6 71.5 82.6 C 61.6 82.6 61.6 82.6 61.6 82.6 L 61.6 90.6 L 61.6 90.6 L 61.6 90.6 Z M 80.3 56.2 C 71.4 56.2 64.2 63.5 64.2 72.5 C 64.2 73.5 64.3 74.4 64.4 75.3 C 64.7 75.2 65 75.1 65.2 75 C 65.1 74.2 65 73.3 65 72.4 C 65.1 64 71.9 57 80.3 57 C 88.7 57 95.6 63.9 95.6 72.4 C 95.6 80.9 88.7 87.8 80.3 87.8 C 77.7 87.8 75.3 87.1 73.1 86 C 73.1 87 73.1 87 73.1 87 C 75.3 88.1 77.7 88.7 80.3 88.7 C 89.2 88.7 96.4 81.4 96.4 72.4 C 96.4 63.4 89.2 56.2 80.3 56.2 L 80.3 56.2 Z" fill="#1D71B8" fill-rule="evenodd" clip-rule="evenodd"/><path d=" M 62.1 80.9 C 62.1 80.2 62.1 80.2 62.1 80.2 C 62.1 77.9 63.3 76.8 64.4 76.3 C 65.5 75.8 66.5 75.7 66.6 75.7 C 66.6 75.7 66.6 75.7 66.6 75.7 L 66.6 75.7 C 66.6 75.7 67.7 75.7 68.8 76.3 C 69.8 76.8 71.1 77.9 71.1 80.2 C 71.1 80.9 71.1 80.9 71.1 80.9 C 69.5 80.9 69.5 80.9 69.5 80.9 C 69.5 80.2 69.5 80.2 69.5 80.2 C 69.5 79 69.1 78.2 68.1 77.7 C 67.4 77.3 66.6 77.3 66.6 77.3 C 66.5 77.3 65.8 77.3 65 77.7 C 64.1 78.2 63.6 79 63.6 80.2 C 63.6 80.9 63.6 80.9 63.6 80.9 L 62.1 80.9 L 62.1 80.9 L 62.1 80.9 Z M 70.8 83.5 C 70.8 89.8 70.8 89.8 70.8 89.8 C 70.8 89.9 70.8 89.9 70.7 89.9 C 62.4 89.9 62.4 89.9 62.4 89.9 C 62.3 89.9 62.3 89.8 62.3 89.8 C 62.3 83.5 62.3 83.5 62.3 83.5 C 62.3 83.4 62.3 83.4 62.4 83.4 C 70.7 83.4 70.7 83.4 70.7 83.4 C 70.8 83.4 70.8 83.4 70.8 83.5 L 70.8 83.5 Z M 67.6 85.9 C 67.6 85.3 67.2 84.9 66.6 84.9 C 66 84.9 65.6 85.4 65.6 85.9 C 65.6 86.3 65.8 86.7 66.2 86.8 C 66.2 88.3 66.2 88.3 66.2 88.3 C 66.2 88.3 66.3 88.4 66.3 88.4 C 66.9 88.4 66.9 88.4 66.9 88.4 C 67 88.4 67 88.4 67 88.3 C 67 86.8 67 86.8 67 86.8 C 67.3 86.6 67.6 86.3 67.6 85.9 L 67.6 85.9 Z M 86.7 61.5 C 86.9 61.9 87.1 62.3 87.3 62.7 C 87.6 62.7 87.9 62.8 88.1 63.1 C 88.9 62.8 89.7 62.4 90.5 62.1 C 88.8 60.4 86.6 59.1 84.2 58.4 C 85.1 59.1 86 60.2 86.7 61.5 L 86.7 61.5 Z M 81.3 64.4 C 83 64.3 84.7 64.1 86.3 63.7 C 86.3 63.5 86.4 63.3 86.6 63.1 C 86.4 62.7 86.2 62.3 86 62 C 84.8 59.8 83.2 58.4 81.6 57.9 C 81.3 57.9 81.1 57.9 80.8 57.8 C 80.8 63.8 80.8 63.8 80.8 63.8 C 81 64 81.2 64.2 81.3 64.4 L 81.3 64.4 Z M 79.9 65.9 C 79.6 65.8 79.4 65.6 79.3 65.3 C 77.5 65.2 75.7 65 74.1 64.6 C 73.9 64.8 73.6 65 73.3 65 C 72.6 67 72.2 69.2 72.2 71.6 C 72.4 71.7 72.6 71.9 72.7 72.2 C 79.3 72.2 79.3 72.2 79.3 72.2 C 79.4 72 79.6 71.8 79.9 71.6 L 79.9 65.9 L 79.9 65.9 L 79.9 65.9 Z M 87.3 80.1 C 88 78.1 88.3 75.8 88.4 73.5 C 88.2 73.4 88 73.2 87.9 72.9 C 81.3 72.9 81.3 72.9 81.3 72.9 C 81.2 73.2 81 73.4 80.8 73.5 C 80.8 79.2 80.8 79.2 80.8 79.2 C 81.1 79.3 81.2 79.5 81.3 79.8 C 83.1 79.9 84.9 80.1 86.5 80.5 C 86.7 80.3 87 80.1 87.3 80.1 L 87.3 80.1 Z M 88.1 64.6 C 88.8 66.7 89.2 69 89.3 71.5 C 89.6 71.6 89.7 71.8 89.9 72.1 C 94.9 72.1 94.9 72.1 94.9 72.1 C 94.8 68.5 93.4 65.2 91.2 62.7 C 90.4 63.2 89.5 63.6 88.5 63.9 C 88.4 64.2 88.3 64.5 88.1 64.6 L 88.1 64.6 Z M 79.3 73 C 72.7 73 72.7 73 72.7 73 C 72.6 73.3 72.4 73.5 72.2 73.6 C 72.3 76 72.7 78.2 73.3 80.2 C 73.6 80.2 73.9 80.4 74.1 80.6 C 75.7 80.2 77.5 79.9 79.3 79.9 C 79.4 79.6 79.6 79.4 79.9 79.3 C 79.9 73.6 79.9 73.6 79.9 73.6 C 79.6 73.4 79.4 73.2 79.3 73 L 79.3 73 Z M 87.3 64.9 C 87 64.9 86.7 64.7 86.5 64.5 C 84.9 64.9 83.1 65.2 81.3 65.2 C 81.2 65.5 81 65.7 80.8 65.8 C 80.8 71.5 80.8 71.5 80.8 71.5 C 81 71.6 81.2 71.8 81.3 72.1 C 87.9 72.1 87.9 72.1 87.9 72.1 C 88 71.9 88.2 71.7 88.4 71.5 C 88.3 69.2 87.9 66.9 87.3 64.9 L 87.3 64.9 Z M 86.6 81.9 C 86.5 81.7 86.4 81.5 86.3 81.3 C 84.7 80.9 83 80.6 81.3 80.6 C 81.2 80.8 81 81 80.8 81.2 C 80.8 87.2 80.8 87.2 80.8 87.2 C 81.1 87.2 81.3 87.2 81.6 87.2 C 83.2 86.7 84.8 85.3 86 83.1 C 86.2 82.7 86.4 82.4 86.6 81.9 L 86.6 81.9 Z M 79.3 80.7 C 77.5 80.8 75.9 81 74.3 81.4 C 74.3 81.6 74.2 81.8 74 82 C 74.2 82.4 74.4 82.8 74.6 83.2 C 75.8 85.4 77.4 86.8 79 87.3 C 79.3 87.3 79.5 87.3 79.8 87.3 C 79.8 81.3 79.8 81.3 79.8 81.3 C 79.6 81.1 79.4 80.9 79.3 80.7 L 79.3 80.7 Z M 88.1 81.9 C 87.9 82.1 87.6 82.3 87.3 82.3 C 87.1 82.7 86.9 83.2 86.7 83.5 C 86 84.8 85.1 85.9 84.2 86.7 C 86.6 86 88.7 84.7 90.5 83 C 89.8 82.6 89 82.2 88.1 81.9 L 88.1 81.9 Z M 79.9 57.8 C 79.6 57.8 79.4 57.8 79.1 57.9 C 77.4 58.4 75.9 59.8 74.7 62 C 74.5 62.4 74.3 62.8 74.1 63.1 C 74.3 63.3 74.4 63.5 74.4 63.7 C 76 64.1 77.7 64.3 79.4 64.4 C 79.5 64.2 79.7 64 79.9 63.9 L 79.9 57.8 L 79.9 57.8 L 79.9 57.8 Z M 89.8 73 C 89.7 73.3 89.5 73.5 89.2 73.6 C 89.1 76.1 88.7 78.4 88 80.5 C 88.2 80.7 88.3 80.9 88.3 81.2 C 89.3 81.5 90.2 82 91 82.4 C 93.2 79.9 94.6 76.6 94.7 73 L 89.8 73 L 89.8 73 L 89.8 73 Z M 72.5 63.1 C 72.7 62.9 73 62.7 73.3 62.7 C 73.5 62.3 73.7 61.8 73.9 61.5 C 74.6 60.2 75.5 59.1 76.4 58.3 C 74 59 71.8 60.3 70.1 62 C 70.8 62.5 71.6 62.8 72.5 63.1 L 72.5 63.1 Z M 70.8 72.1 C 70.9 71.8 71.1 71.6 71.4 71.5 C 71.5 69 71.9 66.7 72.6 64.6 C 72.4 64.4 72.3 64.2 72.3 63.9 C 71.3 63.6 70.4 63.1 69.6 62.7 C 67.4 65.2 66 68.5 65.9 72.1 L 70.8 72.1 L 70.8 72.1 L 70.8 72.1 Z M 66.5 74.9 C 66.6 74.9 66.6 74.9 66.5 74.9 L 66.5 74.9 C 66.7 74.9 67.9 74.9 69.1 75.5 C 70.9 76.4 71.8 78.1 71.8 80.2 C 71.8 80.9 71.8 80.9 71.8 80.9 C 71.9 80.9 72.1 80.9 72.2 81 C 72.2 80.8 72.4 80.5 72.5 80.4 C 71.8 78.3 71.4 76 71.3 73.5 C 71 73.4 70.8 73.2 70.7 72.9 C 65.7 72.9 65.7 72.9 65.7 72.9 C 65.7 73.6 65.8 74.2 65.9 74.9 C 66.3 74.9 66.5 74.9 66.5 74.9 L 66.5 74.9 Z M 73.2 82.4 C 73.2 85.3 73.2 85.3 73.2 85.3 C 74.2 85.9 75.3 86.3 76.4 86.7 C 75.5 85.9 74.6 84.9 73.9 83.5 C 73.7 83.1 73.5 82.7 73.3 82.3 C 73.3 82.3 73.2 82.3 73.2 82.3 C 73.2 82.3 73.2 82.4 73.2 82.4 L 73.2 82.4 Z" fill="#1D71B8" fill-rule="evenodd" clip-rule="evenodd"/></g><g><path d=" M 14.6 47 C 15.6 47.4 16.4 47.9 16.9 48.7 C 17.5 49.5 17.8 50.5 17.9 51.6 C 18 52.7 17.8 54 17.3 55.3 C 16.7 56.9 15.9 58.1 14.9 58.9 C 14.2 59.5 13.4 59.8 12.5 60 C 11.6 60.2 10.8 60.2 10.1 59.9 C 9.7 59.8 9.4 59.5 9.2 59.1 C 9 58.7 9 58.3 9.2 57.9 C 9.3 57.6 9.5 57.3 9.9 57.2 C 10.3 57.1 10.6 57 11.1 57 C 11.7 57 12.2 56.9 12.6 56.8 C 13 56.7 13.4 56.5 13.8 56.1 C 14.2 55.8 14.5 55.2 14.8 54.5 C 15.2 53.5 15.2 52.7 15 51.9 C 14.8 51.1 14.3 50.6 13.7 50.4 C 13.2 50.2 12.7 50.2 12.2 50.4 C 11.7 50.6 11.3 50.9 11 51.4 C 10.6 51.9 10.2 52.5 9.7 53.3 C 9 54.4 8.3 55.2 7.7 55.8 C 7 56.3 6.3 56.8 5.5 57 C 4.7 57.2 3.8 57.2 2.9 56.8 C 2 56.5 1.3 55.9 0.8 55.2 C 0.3 54.4 0 53.6 0 52.5 C 0 51.4 0.2 50.3 0.7 49.1 C 1.1 48.1 1.5 47.3 2 46.7 C 2.5 46.1 3.1 45.6 3.6 45.3 C 4.1 45 4.7 44.8 5.3 44.7 C 5.8 44.6 6.3 44.7 6.7 44.9 C 7.1 45 7.4 45.3 7.6 45.7 C 7.8 46.1 7.8 46.5 7.7 46.9 C 7.6 47.3 7.4 47.5 7.1 47.6 C 6.8 47.7 6.5 47.8 6 47.8 C 5.3 47.9 4.7 48 4.2 48.3 C 3.7 48.6 3.3 49.2 2.9 50.1 C 2.6 50.9 2.5 51.7 2.7 52.3 C 2.9 52.9 3.2 53.4 3.7 53.6 C 4 53.7 4.3 53.7 4.6 53.6 C 4.9 53.5 5.2 53.3 5.5 53.1 C 5.8 52.9 6 52.6 6.2 52.3 C 6.4 52 6.7 51.6 7.2 50.9 C 7.8 50.1 8.3 49.3 8.8 48.7 C 9.3 48.1 9.9 47.6 10.4 47.2 C 10.9 46.8 11.6 46.6 12.2 46.5 C 12.8 46.4 13.8 46.7 14.6 47 Z" fill="#1D71B8"/><path d=" M 9.9 35.6 L 13.7 38.5 C 13.6 37.9 13.5 37.4 13.5 36.9 C 13.5 36.4 13.6 36 13.8 35.5 C 14 35 14.2 34.6 14.5 34.2 C 15 33.6 15.6 33.1 16.2 32.8 C 16.9 32.5 17.6 32.4 18.3 32.5 C 18.7 32.6 19.2 32.7 19.6 32.9 C 20 33.1 20.5 33.4 21 33.8 L 25.9 37.5 C 26.4 37.9 26.7 38.3 26.8 38.7 C 26.9 39.1 26.8 39.5 26.5 39.9 C 25.9 40.8 25 40.8 24 40 L 19.7 36.7 C 18.9 36.1 18.2 35.7 17.5 35.6 C 16.9 35.5 16.3 35.8 15.8 36.5 C 15.5 37 15.3 37.5 15.3 38 C 15.3 38.6 15.4 39.1 15.7 39.6 C 16 40 16.6 40.6 17.6 41.3 L 21 44 C 21.5 44.4 21.8 44.8 21.9 45.2 C 22 45.6 21.9 46 21.6 46.4 C 21 47.2 20.1 47.3 19.1 46.5 L 8 38.2 C 7.5 37.8 7.2 37.4 7.1 37 C 7 36.6 7.1 36.2 7.4 35.8 C 7.7 35.4 8.1 35.2 8.5 35.1 C 8.9 35 9.4 35.2 9.9 35.6 Z" fill="#1D71B8"/><path d=" M 34.2 24.5 C 34.8 25.2 35.2 26 35.5 26.8 C 35.8 27.6 35.9 28.4 35.8 29.2 C 35.7 30 35.5 30.8 35.1 31.5 C 34.7 32.2 34.1 32.9 33.4 33.5 C 32.6 34.1 31.9 34.5 31.1 34.8 C 30.3 35 29.5 35.1 28.7 35 C 27.9 34.9 27.1 34.6 26.4 34.2 C 25.7 33.8 25 33.2 24.4 32.4 C 23.8 31.7 23.3 30.9 23.1 30.1 C 22.8 29.3 22.7 28.5 22.8 27.7 C 22.9 26.9 23.1 26.1 23.5 25.4 C 23.9 24.7 24.5 24 25.2 23.4 C 25.9 22.8 26.7 22.4 27.5 22.1 C 28.3 21.8 29.1 21.8 29.9 21.8 C 30.7 21.8 31.5 22.2 32.2 22.6 C 32.9 23.2 33.6 23.8 34.2 24.5 Z M 31.7 26.5 C 30.9 25.5 30 24.9 29.1 24.7 C 28.2 24.5 27.4 24.7 26.6 25.3 C 26.1 25.7 25.8 26.2 25.6 26.7 C 25.4 27.3 25.5 27.9 25.7 28.5 C 25.9 29.2 26.3 29.8 26.8 30.5 C 27.3 31.1 27.9 31.6 28.5 32 C 29.1 32.3 29.7 32.5 30.3 32.4 C 30.9 32.4 31.4 32.1 31.9 31.7 C 32.6 31.1 33 30.3 33 29.4 C 33 28.5 32.5 27.5 31.7 26.5 Z" fill="#1D71B8"/><path d=" M 47.3 17.4 C 47.7 18.2 48 19.1 48.1 19.9 C 48.2 20.8 48.1 21.6 47.9 22.3 C 47.7 23.1 47.3 23.8 46.7 24.4 C 46.2 25 45.4 25.6 44.6 26 C 43.7 26.4 42.9 26.7 42.1 26.8 C 41.3 26.9 40.5 26.8 39.7 26.5 C 38.9 26.2 38.2 25.8 37.6 25.3 C 37 24.7 36.4 24 36 23.2 C 35.6 22.3 35.3 21.5 35.2 20.6 C 35.1 19.7 35.2 18.9 35.4 18.2 C 35.6 17.4 36 16.7 36.6 16.1 C 37.2 15.5 37.9 14.9 38.7 14.5 C 39.6 14.1 40.4 13.8 41.3 13.7 C 42.1 13.6 42.9 13.7 43.7 13.9 C 44.5 14.2 45.2 14.6 45.8 15.1 C 46.3 15.9 46.9 16.6 47.3 17.4 Z M 44.5 18.9 C 43.9 17.7 43.2 17 42.3 16.6 C 41.5 16.2 40.6 16.3 39.7 16.7 C 39.1 17 38.7 17.4 38.5 17.9 C 38.3 18.4 38.1 19 38.2 19.7 C 38.3 20.4 38.5 21.1 38.9 21.8 C 39.3 22.5 39.7 23.1 40.3 23.6 C 40.8 24 41.4 24.3 41.9 24.4 C 42.5 24.5 43 24.4 43.6 24.1 C 44.5 23.7 45 23 45.1 22.1 C 45.3 21.1 45.1 20.1 44.5 18.9 Z" fill="#1D71B8"/><path d=" M 51.6 20.9 L 46.9 7.8 C 46.7 7.2 46.7 6.7 46.8 6.3 C 47 5.9 47.3 5.6 47.7 5.4 C 48.2 5.2 48.6 5.3 49 5.5 C 49.4 5.7 49.7 6.1 49.9 6.7 L 54.6 19.8 C 54.8 20.4 54.8 20.9 54.7 21.3 C 54.5 21.7 54.2 22 53.8 22.2 C 53.4 22.4 52.9 22.3 52.6 22.1 C 52.1 21.9 51.8 21.5 51.6 20.9 Z" fill="#1D71B8"/><path d=" M 71.1 12 C 71.2 12.5 71.2 13.1 71.1 13.8 C 71 14.5 70.7 15.2 70.2 15.9 C 69.7 16.6 69.1 17.3 68.3 17.8 C 67.5 18.4 66.5 18.7 65.3 19 C 64.4 19.2 63.6 19.3 62.8 19.2 C 62 19.1 61.3 19 60.7 18.8 C 60 18.6 59.4 18.2 58.8 17.7 C 58.2 17.3 57.8 16.7 57.3 16.2 C 56.8 15.7 56.5 15 56.2 14.2 C 55.9 13.5 55.7 12.7 55.5 11.9 C 55.2 10.5 55.2 9.3 55.4 8.1 C 55.6 6.9 56 5.9 56.5 5 C 57.1 4.1 57.8 3.3 58.7 2.7 C 59.6 2.1 60.6 1.7 61.7 1.5 C 63.1 1.2 64.3 1.3 65.5 1.6 C 66.7 1.9 67.6 2.4 68.4 3.1 C 69.1 3.8 69.6 4.5 69.7 5.2 C 69.8 5.6 69.7 6 69.5 6.3 C 69.3 6.8 69 7 68.6 7.1 C 68.2 7.2 67.8 7.2 67.6 7 C 67.3 6.8 67 6.5 66.6 6 C 66 5.3 65.3 4.7 64.7 4.4 C 64 4.1 63.2 4.1 62.4 4.2 C 61 4.5 60 5.2 59.4 6.5 C 58.8 7.7 58.7 9.3 59.1 11.3 C 59.4 12.6 59.8 13.7 60.3 14.5 C 60.8 15.3 61.5 15.8 62.3 16.1 C 63.1 16.4 63.9 16.4 64.8 16.3 C 65.8 16.1 66.6 15.7 67.1 15.1 C 67.7 14.5 68 13.7 68.2 12.6 C 68.3 12.1 68.4 11.7 68.5 11.4 C 68.7 11.1 69 10.9 69.4 10.8 C 69.8 10.7 70.2 10.8 70.5 11 C 70.8 11.2 71 11.6 71.1 12 Z" fill="#1D71B8"/><path d=" M 77.4 17.9 L 77.7 17.2 L 73.5 7.4 C 73.2 6.8 73.1 6.4 73.1 6.2 C 73.1 5.9 73.2 5.7 73.3 5.4 C 73.4 5.2 73.6 5 73.9 4.8 C 74.1 4.7 74.4 4.6 74.7 4.6 C 75.2 4.6 75.5 4.7 75.8 5 C 76 5.3 76.3 5.7 76.5 6.2 L 79.4 14 L 81.8 6.6 C 82 6 82.2 5.5 82.3 5.2 C 82.5 4.9 82.6 4.6 82.8 4.5 C 83 4.4 83.2 4.3 83.6 4.3 C 83.8 4.3 84.1 4.4 84.3 4.5 C 84.5 4.6 84.7 4.8 84.8 5 C 84.9 5.2 85 5.4 85 5.7 C 85 5.8 84.9 6.1 84.9 6.3 C 84.8 6.6 84.8 6.9 84.7 7.1 L 80.8 18.1 C 80.5 19.1 80.1 19.8 79.8 20.4 C 79.5 21 79 21.4 78.5 21.7 C 77.9 22 77.2 22.2 76.2 22.2 C 75.3 22.2 74.6 22.1 74.1 21.9 C 73.6 21.7 73.4 21.3 73.4 20.8 C 73.4 20.4 73.5 20.1 73.7 19.9 C 73.9 19.7 74.2 19.6 74.7 19.6 C 74.9 19.6 75 19.6 75.2 19.7 C 75.4 19.7 75.6 19.8 75.7 19.8 C 76.1 19.8 76.4 19.7 76.6 19.6 C 76.8 19.5 77 19.3 77.2 19 C 77 18.9 77.2 18.5 77.4 17.9 Z" fill="#1D71B8"/><path d=" M 91.8 2 L 91.1 6.8 C 91.8 6.3 92.5 5.9 93.1 5.6 C 93.8 5.4 94.6 5.3 95.5 5.4 C 96.6 5.5 97.4 5.9 98.2 6.5 C 98.9 7.1 99.4 7.9 99.8 8.9 C 100.2 9.9 100.2 11.1 100 12.4 C 99.9 13.4 99.6 14.2 99.3 15 C 98.9 15.8 98.5 16.4 98 16.9 C 97.5 17.4 96.8 17.8 96.1 18 C 95.4 18.2 94.6 18.3 93.8 18.2 C 93.3 18.1 92.9 18 92.4 17.8 C 92 17.6 91.6 17.4 91.4 17.2 C 91.2 17 90.9 16.7 90.7 16.5 C 90.5 16.3 90.3 15.9 90 15.5 L 90 15.8 C 89.9 16.4 89.7 16.8 89.4 17.1 C 89.1 17.4 88.7 17.5 88.2 17.4 C 87.8 17.3 87.4 17.1 87.2 16.8 C 87 16.5 86.9 16 87 15.4 L 88.9 1.6 C 89 1 89.2 0.5 89.5 0.2 C 89.8 -0.1 90.1 0 90.5 0 C 91 0.1 91.3 0.3 91.6 0.6 C 91.8 1 91.9 1.5 91.8 2 Z M 90.7 11.5 C 90.5 12.8 90.7 13.8 91.2 14.5 C 91.7 15.3 92.4 15.7 93.3 15.8 C 94.1 15.9 94.8 15.7 95.5 15 C 96.2 14.4 96.6 13.4 96.8 12.1 C 96.9 11.3 96.9 10.5 96.7 9.9 C 96.5 9.3 96.3 8.8 95.9 8.4 C 95.5 8 95 7.8 94.4 7.7 C 93.8 7.6 93.2 7.7 92.7 8 C 92.2 8.3 91.7 8.7 91.4 9.3 C 91 9.9 90.8 10.6 90.7 11.5 Z" fill="#1D71B8"/><path d=" M 111.1 16.8 L 105.1 14.9 C 104.9 15.6 104.8 16.3 104.9 16.9 C 105 17.5 105.2 18 105.6 18.4 C 106 18.8 106.4 19.1 107 19.3 C 107.4 19.4 107.7 19.5 108 19.5 C 108.3 19.5 108.7 19.5 109 19.4 C 109.3 19.3 109.7 19.2 110 19.1 C 110.3 19 110.7 18.8 111.2 18.5 C 111.4 18.4 111.6 18.4 111.9 18.5 C 112.2 18.6 112.4 18.8 112.6 19 C 112.7 19.2 112.8 19.5 112.7 19.8 C 112.6 20.1 112.4 20.4 112.1 20.7 C 111.8 21 111.3 21.3 110.8 21.5 C 110.3 21.7 109.6 21.8 108.9 21.8 C 108.2 21.8 107.4 21.7 106.5 21.4 C 104.5 20.8 103.2 19.7 102.5 18.3 C 101.8 16.8 101.7 15.2 102.3 13.2 C 102.6 12.3 103 11.5 103.5 10.8 C 104 10.1 104.6 9.6 105.3 9.2 C 106 8.8 106.8 8.6 107.6 8.5 C 108.4 8.4 109.3 8.6 110.2 8.9 C 111.4 9.3 112.3 9.9 113 10.6 C 113.7 11.4 114.1 12.2 114.3 13.2 C 114.5 14.1 114.4 15 114.2 15.8 C 114 16.6 113.6 17 113.1 17.1 C 112.6 17.2 111.9 17.1 111.1 16.8 Z M 105.6 13.2 L 111.1 15 C 111.4 13.9 111.3 13.1 111 12.4 C 110.7 11.7 110.1 11.3 109.3 11 C 108.5 10.8 107.8 10.8 107.2 11.2 C 106.6 11.5 106.1 12.2 105.6 13.2 Z" fill="#1D71B8"/><path d=" M 118.5 21.3 L 117.3 23.7 C 117 24.3 116.7 24.6 116.2 24.8 C 115.7 25 115.4 24.9 114.9 24.7 C 114.5 24.5 114.2 24.2 114.1 23.8 C 114 23.4 114.1 22.9 114.4 22.3 L 118.4 14.3 C 119 13 119.8 12.6 120.8 13.1 C 121.3 13.3 121.5 13.7 121.6 14.1 C 121.7 14.5 121.6 15 121.3 15.6 C 121.9 15.2 122.5 14.9 123 14.8 C 123.5 14.7 124.1 14.8 124.7 15.1 C 125.3 15.4 125.8 15.8 126.2 16.4 C 126.6 17 126.7 17.5 126.5 18 C 126.3 18.3 126.1 18.6 125.7 18.7 C 125.3 18.8 125 18.8 124.7 18.6 C 124.6 18.5 124.4 18.4 124 18 C 123.6 17.6 123.3 17.4 123 17.3 C 122.6 17.1 122.2 17 121.8 17.1 C 121.4 17.2 121.1 17.4 120.7 17.8 C 120.3 18.2 120 18.6 119.6 19.2 C 119.4 19.7 119 20.4 118.5 21.3 Z" fill="#1D71B8"/><path d=" M 136.2 32 C 135.6 32.8 134.8 33.4 133.9 33.7 C 133 34 132 34.1 130.9 33.8 C 129.8 33.5 128.7 33 127.6 32.1 C 126.2 31.1 125.3 30 124.8 28.8 C 124.5 28 124.3 27.1 124.4 26.2 C 124.5 25.3 124.7 24.5 125.2 24 C 125.5 23.7 125.8 23.5 126.2 23.4 C 126.6 23.3 127 23.4 127.4 23.7 C 127.7 23.9 127.9 24.2 127.9 24.5 C 128 24.8 127.9 25.2 127.8 25.7 C 127.6 26.3 127.6 26.8 127.5 27.2 C 127.5 27.6 127.6 28.1 127.8 28.6 C 128 29.1 128.4 29.5 129 30 C 129.8 30.6 130.6 30.9 131.4 30.9 C 132.2 30.9 132.8 30.6 133.3 30.1 C 133.6 29.6 133.8 29.2 133.7 28.7 C 133.6 28.2 133.4 27.7 133.1 27.2 C 132.8 26.7 132.3 26.1 131.7 25.4 C 130.9 24.4 130.3 23.5 129.8 22.7 C 129.3 21.9 129.2 21.1 129.2 20.2 C 129.2 19.4 129.5 18.6 130.1 17.8 C 130.7 17 131.4 16.5 132.2 16.3 C 133.1 16 134 16 135 16.3 C 136 16.6 137.1 17.1 138.1 17.9 C 138.9 18.5 139.6 19.2 140 19.9 C 140.5 20.6 140.8 21.2 140.9 21.9 C 141 22.6 141.1 23.1 141 23.7 C 140.9 24.2 140.7 24.7 140.4 25 C 140.1 25.3 139.8 25.5 139.4 25.6 C 139 25.7 138.6 25.6 138.2 25.3 C 137.9 25.1 137.7 24.8 137.7 24.5 C 137.7 24.2 137.7 23.8 137.8 23.3 C 137.9 22.6 137.9 22 137.8 21.4 C 137.7 20.8 137.2 20.3 136.4 19.7 C 135.7 19.2 135 18.9 134.3 18.9 C 133.6 18.9 133.1 19.1 132.8 19.5 C 132.6 19.8 132.5 20.1 132.5 20.4 C 132.5 20.7 132.6 21 132.7 21.4 C 132.9 21.7 133 22.1 133.2 22.3 C 133.4 22.6 133.8 23 134.3 23.7 C 134.9 24.5 135.5 25.2 135.9 25.9 C 136.4 26.6 136.7 27.3 136.9 27.9 C 137.1 28.5 137.1 29.2 137 29.9 C 137.1 30.6 136.7 31.3 136.2 32 Z" fill="#1D71B8"/><path d=" M 144.1 40.9 L 140.2 36 C 139.6 36.5 139.2 37 139 37.6 C 138.7 38.2 138.7 38.7 138.7 39.3 C 138.8 39.8 139 40.3 139.4 40.8 C 139.6 41.1 139.9 41.3 140.2 41.5 C 140.5 41.7 140.8 41.8 141.1 41.9 C 141.4 42 141.8 42.1 142.1 42.2 C 142.4 42.3 142.9 42.3 143.4 42.4 C 143.6 42.4 143.8 42.6 144 42.8 C 144.2 43.1 144.3 43.3 144.3 43.6 C 144.3 43.9 144.2 44.1 143.9 44.3 C 143.7 44.5 143.3 44.6 142.9 44.7 C 142.5 44.8 142 44.7 141.4 44.6 C 140.8 44.5 140.2 44.2 139.6 43.8 C 139 43.4 138.4 42.9 137.8 42.2 C 136.5 40.6 136 39 136.1 37.4 C 136.3 35.8 137.2 34.3 138.7 33.1 C 139.4 32.5 140.2 32.1 141 31.8 C 141.8 31.5 142.6 31.4 143.4 31.4 C 144.2 31.5 145 31.7 145.7 32.1 C 146.4 32.5 147.1 33.1 147.7 33.8 C 148.5 34.8 149 35.8 149.1 36.8 C 149.3 37.8 149.1 38.8 148.8 39.6 C 148.4 40.5 147.9 41.2 147.2 41.7 C 146.6 42.2 146 42.4 145.5 42.1 C 145 41.8 144.6 41.6 144.1 40.9 Z M 141.6 34.9 L 145.3 39.4 C 146.1 38.7 146.6 37.9 146.7 37.2 C 146.8 36.5 146.6 35.8 146.1 35.1 C 145.6 34.5 145 34.1 144.2 34.1 C 143.3 34.1 142.5 34.3 141.6 34.9 Z" fill="#1D71B8"/><path d=" M 150.4 56.8 C 150 57 149.6 57 149.1 57 C 148.6 57 148 56.8 147.5 56.5 C 146.9 56.2 146.4 55.8 145.8 55.2 C 145.2 54.6 144.8 53.9 144.4 53.1 C 143.6 51.3 143.5 49.6 144.1 48.2 C 144.7 46.7 145.9 45.6 147.7 44.8 C 148.9 44.3 150.1 44 151.2 44.1 C 152.3 44.2 153.3 44.5 154.2 45.2 C 155.1 45.9 155.8 46.8 156.3 48 C 156.6 48.8 156.8 49.5 156.9 50.2 C 157 50.9 156.9 51.6 156.8 52.2 C 156.6 52.8 156.4 53.3 156.1 53.7 C 155.8 54.1 155.5 54.4 155.1 54.5 C 154.7 54.7 154.4 54.7 154 54.5 C 153.6 54.3 153.4 54.1 153.2 53.7 C 153.1 53.5 153.1 53.2 153.1 53 C 153.2 52.8 153.3 52.5 153.5 52.2 C 153.9 51.6 154.1 51 154.2 50.5 C 154.3 50 154.2 49.4 154 48.8 C 153.6 47.9 153 47.4 152.1 47.2 C 151.2 47 150.2 47.1 149 47.6 C 148.5 47.8 148 48.1 147.6 48.5 C 147.2 48.8 146.9 49.2 146.7 49.6 C 146.5 50 146.4 50.4 146.4 50.9 C 146.4 51.4 146.5 51.8 146.7 52.2 C 147 52.8 147.3 53.2 147.8 53.5 C 148.3 53.8 148.8 54 149.5 54.1 C 149.9 54.1 150.3 54.2 150.5 54.3 C 150.8 54.4 151 54.6 151.1 54.9 C 151.3 55.3 151.3 55.6 151.1 56 C 150.9 56.5 150.7 56.7 150.4 56.8 Z" fill="#1D71B8"/></g></svg>